<svg xmlns="http://www.w3.org/2000/svg" viewBox="0 0 715 93.2"><defs><style>.cls-1{fill:#cde8d8;}.cls-2{fill:#009345;}.cls-3{opacity:0.2;}.cls-4{fill:#f2f2f2;}.cls-5{fill:#006838;}</style></defs><title>Asset 6</title><g id="Layer_2" data-name="Layer 2"><g id="Layer_1-2" data-name="Layer 1"><rect class="cls-1" x="48" y="13.1" width="667.1" height="67"/><polygon class="cls-2" points="95.9 46.6 54.6 46.6 32 0 73.3 0 95.9 46.6"/><polygon class="cls-2" points="95.9 46.6 54.6 46.6 32 93.2 73.3 93.2 95.9 46.6"/><g class="cls-3"><polygon class="cls-4" points="72.5 46.6 31.2 46.6 8.6 0 49.9 0 72.5 46.6"/><polygon class="cls-4" points="72.5 46.6 31.2 46.6 8.6 93.2 49.9 93.2 72.5 46.6"/></g><polygon class="cls-5" points="63.9 46.6 22.6 46.6 0 0 41.3 0 63.9 46.6"/><polygon class="cls-5" points="63.9 46.6 22.6 46.6 0 93.2 41.3 93.2 63.9 46.6"/><path class="cls-2" d="M669.5,48.4a2.1,2.1,0,0,1,2.2-1.2h21.4l-2.9,3.1H672.8V71.1h20.8v-.7c0-4.7-.1-9.5,0-14.2a1.7,1.7,0,0,1,.4-1.1c.8-1.1,1.8-2.2,2.8-3.4V72.6a1.6,1.6,0,0,1-1.8,1.8H671.7a2.2,2.2,0,0,1-2.2-1.3Z"/><path class="cls-2" d="M700.1,45.8l-.6.8a95.3,95.3,0,0,0-16,20.8c-.5.9-1.2,1.3-2,1a2,2,0,0,1-1-.8c-1.7-3.1-3.4-6.2-5-9.3-.4-.7-.3-1.3.2-1.6s1.2-.2,1.7.5l4.5,6.7,3.1-4.4A84.9,84.9,0,0,1,698,45q1.2-1.2,2.1.3Z"/></g></g></svg>