<svg xmlns="http://www.w3.org/2000/svg" viewBox="0 0 71 55.9"><defs><style>.cls-1{fill:#ec1c24;}.cls-2{fill:#fff;}</style></defs><title>Asset 19</title><g id="Layer_2" data-name="Layer 2"><g id="Layer_1-2" data-name="Layer 1"><path class="cls-1" d="M40.9,55.9H37.2c-.7,0-.8-.1-.8-.7a37.6,37.6,0,0,1,.3-5.8c.6-3.5,1.9-6.8,5.1-8.9a30.4,30.4,0,0,1,3.7-1.7l6.1-2.6a3.8,3.8,0,0,0,2-2.1c.6-1.3,1.4-2.7,2-4s.8-1.9,1.3-2.8,2-4.1,3.2-6A11.5,11.5,0,0,1,62.6,18a.8.8,0,0,1,1.2-.1c.4.3.7.2,1.1-.1l.5-.4a1.3,1.3,0,0,1,1.2-.1.8.8,0,0,0,1.1-.2l.8-.7c1-.5,1.4.1,1.5.9a5.9,5.9,0,0,1-.2,1.4c-.1.4,0,.6.4.7s.8.4.7,1a14.3,14.3,0,0,1-.4,2.2c-.2,1-.3,2.1-.6,3.1s-1.1,3-1.7,4.5a38.7,38.7,0,0,1-2.5,5.5l-3,5.1a31.2,31.2,0,0,1-3.4,4.7,24.2,24.2,0,0,1-5.6,5c-2.4,1.6-4.7,3.3-7.1,4.8a5.5,5.5,0,0,1-1.8.6c-1.3.1-2.6,0-3.9,0Zm7.6-11.2c.3-.3.6-.8,1-1l6.3-4.6a14.1,14.1,0,0,0,3.7-3.6,4.9,4.9,0,0,0,.8-2.4.8.8,0,0,0-.8-.7l-.6.2-1.6,1.1A41,41,0,0,1,47.4,39a30.7,30.7,0,0,0-4.2,1.7,10.6,10.6,0,0,0-4.8,5.4,16.8,16.8,0,0,0-1.1,5.4,22.6,22.6,0,0,1-.1,2.6c0,.6.2.9.8.9l6.9-.2a1.4,1.4,0,0,0,.9-.3L53,49.7a28.5,28.5,0,0,0,7.4-7.3A71.3,71.3,0,0,0,66.3,32a47.3,47.3,0,0,0,3.2-8.9l.3-1.6a.8.8,0,0,0-.2-.5H69l-.6.6-2,3.6c-1.2,2.3-2.3,4.7-3.7,6.9a23,23,0,0,1-7.8,8.3,16.1,16.1,0,0,0-3.4,2.4l-1.8,1.6C49.3,44.9,48.9,45,48.5,44.7ZM61.3,33.1c.1-.1.1-.1.1-.2L64.1,28l3.6-6.5A7.7,7.7,0,0,0,69.1,19a4.3,4.3,0,0,0,.2-1.1c0-.2,0-.5-.2-.6h-.5a2.8,2.8,0,0,0-.9,1c-.9,1.3-1.8,2.6-2.6,4L60.6,31A1.8,1.8,0,0,0,61.3,33.1Zm2.2-13.7c0-1-.2-1.1-.7-.8a1.7,1.7,0,0,0-.6.6,24,24,0,0,0-1.6,2.7L54.9,33.3a1.9,1.9,0,0,0-.3.8c-.1.1-.1.3,0,.3H55l.4-.3a5.5,5.5,0,0,0,1.7-2,103.2,103.2,0,0,1,5.8-11.5A6.9,6.9,0,0,0,63.5,19.4ZM57.9,32.2a3.1,3.1,0,0,0,2.3-1.8l.3-.9,4.9-8.9.9-1.9a.8.8,0,0,0-.2-.8c-.3-.2-.6,0-.8.3l-1,1.2-2,3.8-4,8.1Z"/><path class="cls-1" d="M29.7,55.9c-1.2,0-2.5-.1-3.7,0a2.4,2.4,0,0,1-1.4-.5l-6.1-4c-.7-.5-1.4-.8-2-1.3a25.4,25.4,0,0,1-5.1-4.7,71.3,71.3,0,0,1-6.5-10,61.8,61.8,0,0,1-4.1-10C.5,24.3.4,23.3.2,22.2A7.7,7.7,0,0,1,0,20.7c0-.6.1-.7.7-.7s.5-.1.4-.5a5.1,5.1,0,0,1-.3-1.7c-.1-.8.4-1.1,1.2-1a2.7,2.7,0,0,1,1.2.6.8.8,0,0,0,.8.2,2.1,2.1,0,0,1,2,.6.5.5,0,0,0,.6.1,1.5,1.5,0,0,1,2.3.6c1.2,2,2.4,3.9,3.5,5.9s3.3,6.4,4.8,9.6a4.5,4.5,0,0,0,2.4,2.1L27,39.6a11.5,11.5,0,0,1,3.3,2.1,10.8,10.8,0,0,1,3.4,5.6c.8,2.3.7,4.6.8,7a2.8,2.8,0,0,1-.1.9c0,.5-.1.7-.6.7Zm-7.5-11a.8.8,0,0,1-1.1-.3,12.3,12.3,0,0,0-4.3-3.5,23.3,23.3,0,0,1-9.1-9.3C6.4,29.4,5.2,27,3.8,24.5A21.1,21.1,0,0,0,2,21.8c-.1-.3-.5-.6-.8-.4a2.4,2.4,0,0,0-.2.8,5,5,0,0,0,.2,1.2c.7,2,1.3,4.1,2.1,6.1a77,77,0,0,0,5.8,11,29.7,29.7,0,0,0,8.1,8.8c1.2.9,2.5,1.5,3.7,2.3L25,54.5a2.5,2.5,0,0,0,1.2.4h6.7c.6,0,.8-.2.8-.9s-.1-1.4-.2-2.2a14.7,14.7,0,0,0-1.3-6.2,10.2,10.2,0,0,0-5.6-5.4l-5-2a34,34,0,0,1-7.7-4.2l-2-1.2a1.1,1.1,0,0,0-1.2,0c-.4.4-.2.8-.2,1.2a.3.3,0,0,0,.1.2,7.5,7.5,0,0,0,2.6,3.5l4.5,3.1a19,19,0,0,1,4.1,3.4C21.9,44.5,22.1,44.6,22.2,44.9ZM9.6,33.6c.2-.4.2-.7.4-.9A1.2,1.2,0,0,0,10,31c-1.4-2.8-2.9-5.5-4.4-8.2a55.2,55.2,0,0,0-3.2-4.7c0-.1,0-.1-.1-.1s-.8,0-.8.5h0a5.6,5.6,0,0,0,1,2.7A17,17,0,0,1,4,23.4c1.5,2.8,3,5.6,4.6,8.4ZM7.7,18.7H7.2c-.1.2-.2.3-.2.4a2.9,2.9,0,0,0,.2.9L9,23.2l4.7,9.1a4.5,4.5,0,0,0,2,2.3c.2.1.4,0,.5,0s.1-.3,0-.5-.8-1.9-1.3-2.8L9.2,20.6A9.1,9.1,0,0,0,8.1,19Zm5.1,13.7c-.1-.3-.1-.5-.3-.7-1.7-3.5-3.4-6.9-5.2-10.3a17.3,17.3,0,0,0-1.9-2.8L5,18.4a.6.6,0,0,0-.6.5h0A6.7,6.7,0,0,0,5,20.2l5.7,10.6A2.7,2.7,0,0,0,12.8,32.4Z"/><path class="cls-2" d="M48.5,44.7c.4.3.8.2,1.2-.2l1.8-1.6a16.1,16.1,0,0,1,3.4-2.4,23,23,0,0,0,7.8-8.3c1.4-2.2,2.5-4.6,3.7-6.9l2-3.6.6-.6h.6a.8.8,0,0,1,.2.5l-.3,1.6A47.3,47.3,0,0,1,66.3,32a71.3,71.3,0,0,1-5.9,10.4A28.5,28.5,0,0,1,53,49.7l-7.2,4.8a1.4,1.4,0,0,1-.9.3L38,55c-.6,0-.8-.3-.8-.9a22.6,22.6,0,0,0,.1-2.6,16.8,16.8,0,0,1,1.1-5.4,10.6,10.6,0,0,1,4.8-5.4A30.7,30.7,0,0,1,47.4,39a41,41,0,0,0,9.9-5.3l1.6-1.1.6-.2a.8.8,0,0,1,.8.7,4.9,4.9,0,0,1-.8,2.4,14.1,14.1,0,0,1-3.7,3.6l-6.3,4.6C49.1,43.9,48.8,44.4,48.5,44.7Z"/><path class="cls-2" d="M61.3,33.1a1.8,1.8,0,0,1-.7-2.1l4.5-8.6c.8-1.4,1.7-2.7,2.6-4a2.8,2.8,0,0,1,.9-1h.5c.2.1.2.4.2.6a4.3,4.3,0,0,1-.2,1.1,7.7,7.7,0,0,1-1.4,2.5L64.1,28l-2.7,4.9C61.4,33,61.4,33,61.3,33.1Z"/><path class="cls-2" d="M63.5,19.4a6.9,6.9,0,0,1-.6,1.3,103.2,103.2,0,0,0-5.8,11.5,5.5,5.5,0,0,1-1.7,2l-.4.3h-.4c-.1,0-.1-.2,0-.3a1.9,1.9,0,0,1,.3-.8l5.7-11.4a24,24,0,0,1,1.6-2.7,1.7,1.7,0,0,1,.6-.6C63.3,18.3,63.5,18.4,63.5,19.4Z"/><path class="cls-2" d="M57.9,32.2l.4-.9,4-8.1,2-3.8,1-1.2c.2-.3.5-.5.8-.3a.8.8,0,0,1,.2.8l-.9,1.9-4.9,8.9-.3.9A3.1,3.1,0,0,1,57.9,32.2Z"/><path class="cls-2" d="M22.2,44.9c-.1-.3-.3-.4-.4-.6a19,19,0,0,0-4.1-3.4l-4.5-3.1a7.5,7.5,0,0,1-2.6-3.5.3.3,0,0,1-.1-.2c0-.4-.2-.8.2-1.2a1.1,1.1,0,0,1,1.2,0l2,1.2a34,34,0,0,0,7.7,4.2l5,2a10.2,10.2,0,0,1,5.6,5.4,14.7,14.7,0,0,1,1.3,6.2c.1.8.1,1.5.2,2.2s-.2.9-.8.9H26.2a2.5,2.5,0,0,1-1.2-.4l-4.1-2.9c-1.2-.8-2.5-1.4-3.7-2.3a29.7,29.7,0,0,1-8.1-8.8,77,77,0,0,1-5.8-11c-.8-2-1.4-4.1-2.1-6.1A5,5,0,0,1,1,22.2a2.4,2.4,0,0,1,.2-.8c.3-.2.7.1.8.4a21.1,21.1,0,0,1,1.8,2.7c1.4,2.5,2.6,4.9,3.9,7.3a23.3,23.3,0,0,0,9.1,9.3,12.3,12.3,0,0,1,4.3,3.5A.8.8,0,0,0,22.2,44.9Z"/><path class="cls-2" d="M9.6,33.6l-1-1.8C7,29,5.5,26.2,4,23.4a17,17,0,0,0-1.5-2.2,5.6,5.6,0,0,1-1-2.7h0c0-.5.5-.8.8-.5s.1,0,.1.1a55.2,55.2,0,0,1,3.2,4.7c1.5,2.7,3,5.4,4.4,8.2a1.2,1.2,0,0,1,0,1.7C9.8,32.9,9.8,33.2,9.6,33.6Z"/><path class="cls-2" d="M7.2,18.7h.5l.4.3a9.1,9.1,0,0,1,1.1,1.6l5.7,10.7c.5.9.9,1.9,1.3,2.8h0a.3.3,0,0,1-.4.4h-.1a4.5,4.5,0,0,1-2-2.3L9,23.2,7.2,20a2.9,2.9,0,0,1-.2-.9C7,19,7.1,18.9,7.2,18.7Z"/><path class="cls-2" d="M12.8,32.4a2.7,2.7,0,0,1-2.1-1.6L5,20.2A6.7,6.7,0,0,1,4.4,19h0a.6.6,0,0,1,.6-.5l.4.2a17.3,17.3,0,0,1,1.9,2.8c1.8,3.4,3.5,6.8,5.2,10.3C12.7,31.9,12.7,32.1,12.8,32.4Z"/><path class="cls-1" d="M54.1,5.3A8.6,8.6,0,0,0,46.4,0a15.1,15.1,0,0,0-3,.2,11.5,11.5,0,0,0-3.1,1.1,12.7,12.7,0,0,0-4.1,3.9c-.8,1-1.1,1-2,0a15,15,0,0,0-3.6-3.5A9,9,0,0,0,22.8.5a9.8,9.8,0,0,0-5.6,4.6,8.3,8.3,0,0,0-.9,5.4c.2,2.4,1.3,4.6,2.3,6.8a13.8,13.8,0,0,0,1.7,2.5,32.1,32.1,0,0,0,4.2,4.8c1.8,1.8,3.5,3.6,5.3,5.3s3.5,3.3,5.3,4.9.6.6,1.2,0h.1l6.3-6.5c2.6-2.6,5.3-5.1,7.7-7.9A17.9,17.9,0,0,0,54.7,8.9,11.3,11.3,0,0,0,54.1,5.3Z"/><path class="cls-2" d="M27.1,10.8H25.9v-1h3.7v1H28.4v3.7H27.1Z"/><path class="cls-2" d="M31.4,9.8v1.7h1.5V9.8h1.3v4.7H32.9V12.6H31.4v1.9H30.2V9.8Z"/><path class="cls-2" d="M36.3,9.8v4.7H35.1V9.8Z"/><path class="cls-2" d="M40.1,12.6H38.4v.8h1.9v1.1H37.2V9.8h3v1H38.4v.8h1.7Zm-.9-3.9.7.8h-.8l-.3-.4h-.1l-.3.4h-.8l.7-.8Z"/><path class="cls-2" d="M41,14.5V9.8h1.5l.7,1.4a8.9,8.9,0,0,1,.8,1.7h0a13.4,13.4,0,0,1-.1-2V9.8H45v4.7H43.7l-.8-1.6-.8-1.7h0a14.8,14.8,0,0,1,.1,2.1v1.2Z"/><path class="cls-2" d="M27.3,22.3V20.5l-1.5-2.7h1.4l.4,1,.3.8h0l.3-.8.4-1h1.3l-1.4,2.6v1.9Z"/><path class="cls-2" d="M31.4,19.5h.4V17.8h1.4a3.1,3.1,0,0,1,1.9.5,1.9,1.9,0,0,1,.8,1.7,2,2,0,0,1-.8,1.9,3.3,3.3,0,0,1-2.1.6H31.8V20.5h-.4Zm2.4,1H33v.9h.3c.8,0,1.3-.4,1.3-1.4s-.5-1.3-1.2-1.3H33v.8h.8Z"/><path class="cls-2" d="M41.1,16.9a1.9,1.9,0,0,1,.2.7c0,.4-.2.7-.8.8h-.1v1.9c0,1.4-.7,2.1-1.9,2.1s-1.9-.7-1.9-2.1V17.8h1.2v2.6c0,.6.2,1,.7,1s.7-.3.7-1V17.8h.9c.3,0,.4-.1.4-.3a.8.8,0,0,0-.2-.4Zm-1.4-.2-.8.9h-1l.5-.9Z"/><path class="cls-2" d="M45,22.2a2.9,2.9,0,0,1-1.2.2,2.2,2.2,0,0,1-2.4-2.3,2.3,2.3,0,0,1,2.5-2.4l1.1.2-.2,1-.8-.2A1.2,1.2,0,0,0,42.7,20,1.2,1.2,0,0,0,44,21.4h.8Z"/></g></g></svg>