<svg id="Layer_1" data-name="Layer 1" xmlns="http://www.w3.org/2000/svg" viewBox="0 0 31.1 30"><defs><style>.cls-1{fill:#009345;}</style></defs><title>VAD break</title><path class="cls-1" d="M0,4A2,2,0,0,1,2.1,2.7H23.6l-3,3.2H3.3V26.7H24V11.8a2.1,2.1,0,0,1,.4-1.1l2.8-3.4V28.1c0,1.3-.6,1.9-1.8,1.9H2.1A2,2,0,0,1,0,28.8Z"/><path class="cls-1" d="M30.5,1.4l-.6.7C23.5,8.2,18.5,15.4,14,23c-.6.9-1.3,1.3-2.1,1a2,2,0,0,1-.9-.9c-1.8-3-3.4-6.1-5.1-9.2a1.2,1.2,0,0,1,.3-1.7c.5-.3,1.1-.1,1.6.5l4.5,6.7c1.1-1.4,2.1-2.9,3.1-4.3A81.9,81.9,0,0,1,28.4.5c.9-.8,1.5-.7,2.1.3Z"/></svg>